<mxfile host="app.diagrams.net" modified="2021-07-27T06:50:21.745Z" agent="5.0 (X11)" etag="HNQUXojm2XzGkEVeH4CE" version="14.9.2" type="github">
  <diagram id="KK3NRX-cH3OFIlQ7OjAE" name="Page-1">
    <mxGraphModel dx="1399" dy="1084" grid="1" gridSize="10" guides="1" tooltips="1" connect="1" arrows="1" fold="1" page="1" pageScale="1" pageWidth="827" pageHeight="1169" math="0" shadow="0">
      <root>
        <mxCell id="0" />
        <mxCell id="1" parent="0" />
        <mxCell id="qo1yuMi9IAI9fGJ403cK-1" value="AbstractMetricCO" style="swimlane;fontStyle=0;childLayout=stackLayout;horizontal=1;startSize=26;fillColor=none;horizontalStack=0;resizeParent=1;resizeParentMax=0;resizeLast=0;collapsible=1;marginBottom=0;" vertex="1" parent="1">
          <mxGeometry x="70" y="220" width="140" height="52" as="geometry" />
        </mxCell>
        <mxCell id="qo1yuMi9IAI9fGJ403cK-21" value="ClientObject" style="swimlane;fontStyle=0;childLayout=stackLayout;horizontal=1;startSize=26;fillColor=none;horizontalStack=0;resizeParent=1;resizeParentMax=0;resizeLast=0;collapsible=1;marginBottom=0;" vertex="1" parent="1">
          <mxGeometry x="70" y="90" width="140" height="52" as="geometry" />
        </mxCell>
        <mxCell id="qo1yuMi9IAI9fGJ403cK-24" value="" style="endArrow=block;endFill=0;endSize=12;html=1;entryX=0.5;entryY=1;entryDx=0;entryDy=0;" edge="1" parent="1" source="qo1yuMi9IAI9fGJ403cK-1" target="qo1yuMi9IAI9fGJ403cK-21">
          <mxGeometry width="160" relative="1" as="geometry">
            <mxPoint x="190" y="400" as="sourcePoint" />
            <mxPoint x="350" y="400" as="targetPoint" />
          </mxGeometry>
        </mxCell>
        <mxCell id="qo1yuMi9IAI9fGJ403cK-25" value="ATAMetricCO" style="swimlane;fontStyle=0;childLayout=stackLayout;horizontal=1;startSize=26;fillColor=none;horizontalStack=0;resizeParent=1;resizeParentMax=0;resizeLast=0;collapsible=1;marginBottom=0;" vertex="1" parent="1">
          <mxGeometry x="70" y="340" width="140" height="52" as="geometry" />
        </mxCell>
        <mxCell id="qo1yuMi9IAI9fGJ403cK-26" value="" style="endArrow=block;endFill=0;endSize=12;html=1;entryX=0.5;entryY=1;entryDx=0;entryDy=0;exitX=0.5;exitY=0;exitDx=0;exitDy=0;" edge="1" parent="1" source="qo1yuMi9IAI9fGJ403cK-25" target="qo1yuMi9IAI9fGJ403cK-1">
          <mxGeometry width="160" relative="1" as="geometry">
            <mxPoint x="150" y="230" as="sourcePoint" />
            <mxPoint x="150" y="152" as="targetPoint" />
          </mxGeometry>
        </mxCell>
        <mxCell id="qo1yuMi9IAI9fGJ403cK-27" value="ATAMetricAddCmd" style="swimlane;fontStyle=0;childLayout=stackLayout;horizontal=1;startSize=26;fillColor=none;horizontalStack=0;resizeParent=1;resizeParentMax=0;resizeLast=0;collapsible=1;marginBottom=0;" vertex="1" parent="1">
          <mxGeometry x="-270" y="250" width="140" height="52" as="geometry" />
        </mxCell>
        <mxCell id="qo1yuMi9IAI9fGJ403cK-31" value="+ ATAMetricCO" style="text;strokeColor=none;fillColor=none;align=left;verticalAlign=top;spacingLeft=4;spacingRight=4;overflow=hidden;rotatable=0;points=[[0,0.5],[1,0.5]];portConstraint=eastwest;" vertex="1" parent="qo1yuMi9IAI9fGJ403cK-27">
          <mxGeometry y="26" width="140" height="26" as="geometry" />
        </mxCell>
        <mxCell id="qo1yuMi9IAI9fGJ403cK-30" value="" style="endArrow=open;endFill=1;endSize=12;html=1;entryX=0;entryY=0.5;entryDx=0;entryDy=0;exitX=1;exitY=0.5;exitDx=0;exitDy=0;edgeStyle=elbowEdgeStyle;" edge="1" parent="1" source="qo1yuMi9IAI9fGJ403cK-27" target="qo1yuMi9IAI9fGJ403cK-25">
          <mxGeometry width="160" relative="1" as="geometry">
            <mxPoint x="-110" y="400" as="sourcePoint" />
            <mxPoint x="50" y="400" as="targetPoint" />
          </mxGeometry>
        </mxCell>
        <mxCell id="qo1yuMi9IAI9fGJ403cK-36" value="CommonCommand" style="swimlane;fontStyle=0;childLayout=stackLayout;horizontal=1;startSize=26;fillColor=none;horizontalStack=0;resizeParent=1;resizeParentMax=0;resizeLast=0;collapsible=1;marginBottom=0;" vertex="1" parent="1">
          <mxGeometry x="-270" y="140" width="140" height="52" as="geometry" />
        </mxCell>
        <mxCell id="qo1yuMi9IAI9fGJ403cK-37" value="" style="endArrow=block;endFill=0;endSize=12;html=1;entryX=0.5;entryY=1;entryDx=0;entryDy=0;" edge="1" parent="1" source="qo1yuMi9IAI9fGJ403cK-27" target="qo1yuMi9IAI9fGJ403cK-36">
          <mxGeometry width="160" relative="1" as="geometry">
            <mxPoint x="150" y="230" as="sourcePoint" />
            <mxPoint x="150" y="152" as="targetPoint" />
          </mxGeometry>
        </mxCell>
        <mxCell id="qo1yuMi9IAI9fGJ403cK-38" value="ATAMetricItem" style="swimlane;fontStyle=0;childLayout=stackLayout;horizontal=1;startSize=26;fillColor=none;horizontalStack=0;resizeParent=1;resizeParentMax=0;resizeLast=0;collapsible=1;marginBottom=0;" vertex="1" parent="1">
          <mxGeometry x="270" y="340" width="140" height="52" as="geometry" />
        </mxCell>
        <mxCell id="qo1yuMi9IAI9fGJ403cK-39" value="MetricDO" style="swimlane;fontStyle=0;childLayout=stackLayout;horizontal=1;startSize=26;fillColor=none;horizontalStack=0;resizeParent=1;resizeParentMax=0;resizeLast=0;collapsible=1;marginBottom=0;" vertex="1" parent="1">
          <mxGeometry x="-270" y="790" width="140" height="52" as="geometry" />
        </mxCell>
        <mxCell id="qo1yuMi9IAI9fGJ403cK-40" value="BaseDO" style="swimlane;fontStyle=0;childLayout=stackLayout;horizontal=1;startSize=26;fillColor=none;horizontalStack=0;resizeParent=1;resizeParentMax=0;resizeLast=0;collapsible=1;marginBottom=0;" vertex="1" parent="1">
          <mxGeometry x="-270" y="660" width="140" height="52" as="geometry" />
        </mxCell>
        <mxCell id="qo1yuMi9IAI9fGJ403cK-41" value="" style="endArrow=block;endFill=0;endSize=12;html=1;entryX=0.5;entryY=1;entryDx=0;entryDy=0;exitX=0.5;exitY=0;exitDx=0;exitDy=0;" edge="1" parent="1" source="qo1yuMi9IAI9fGJ403cK-39" target="qo1yuMi9IAI9fGJ403cK-40">
          <mxGeometry width="160" relative="1" as="geometry">
            <mxPoint x="169.99999999999977" y="599.9999999999998" as="sourcePoint" />
            <mxPoint x="169.99999999999977" y="532" as="targetPoint" />
          </mxGeometry>
        </mxCell>
        <mxCell id="qo1yuMi9IAI9fGJ403cK-42" value="Measurable" style="swimlane;fontStyle=0;childLayout=stackLayout;horizontal=1;startSize=26;fillColor=none;horizontalStack=0;resizeParent=1;resizeParentMax=0;resizeLast=0;collapsible=1;marginBottom=0;" vertex="1" parent="1">
          <mxGeometry x="10" y="585" width="140" height="50" as="geometry" />
        </mxCell>
        <mxCell id="qo1yuMi9IAI9fGJ403cK-43" value="Metric" style="swimlane;fontStyle=0;childLayout=stackLayout;horizontal=1;startSize=26;fillColor=none;horizontalStack=0;resizeParent=1;resizeParentMax=0;resizeLast=0;collapsible=1;marginBottom=0;" vertex="1" parent="1">
          <mxGeometry x="10" y="690" width="140" height="50" as="geometry" />
        </mxCell>
        <mxCell id="qo1yuMi9IAI9fGJ403cK-44" value="" style="endArrow=block;dashed=1;endFill=0;endSize=12;html=1;exitX=0.5;exitY=0;exitDx=0;exitDy=0;entryX=0.5;entryY=1;entryDx=0;entryDy=0;" edge="1" parent="1" source="qo1yuMi9IAI9fGJ403cK-43" target="qo1yuMi9IAI9fGJ403cK-42">
          <mxGeometry width="160" relative="1" as="geometry">
            <mxPoint x="-130" y="420" as="sourcePoint" />
            <mxPoint x="80" y="660" as="targetPoint" />
          </mxGeometry>
        </mxCell>
        <mxCell id="qo1yuMi9IAI9fGJ403cK-45" value="MainMetric" style="swimlane;fontStyle=0;childLayout=stackLayout;horizontal=1;startSize=26;fillColor=none;horizontalStack=0;resizeParent=1;resizeParentMax=0;resizeLast=0;collapsible=1;marginBottom=0;" vertex="1" parent="1">
          <mxGeometry x="-70" y="820" width="140" height="50" as="geometry" />
        </mxCell>
        <mxCell id="qo1yuMi9IAI9fGJ403cK-46" value="" style="endArrow=block;endFill=0;endSize=12;html=1;entryX=0.25;entryY=1;entryDx=0;entryDy=0;exitX=0.5;exitY=0;exitDx=0;exitDy=0;" edge="1" parent="1" source="qo1yuMi9IAI9fGJ403cK-45" target="qo1yuMi9IAI9fGJ403cK-43">
          <mxGeometry width="160" relative="1" as="geometry">
            <mxPoint x="-190" y="800" as="sourcePoint" />
            <mxPoint x="-190" y="722" as="targetPoint" />
          </mxGeometry>
        </mxCell>
        <mxCell id="qo1yuMi9IAI9fGJ403cK-47" value="SubMetric" style="swimlane;fontStyle=0;childLayout=stackLayout;horizontal=1;startSize=26;fillColor=none;horizontalStack=0;resizeParent=1;resizeParentMax=0;resizeLast=0;collapsible=1;marginBottom=0;" vertex="1" parent="1">
          <mxGeometry x="190" y="820" width="140" height="50" as="geometry" />
        </mxCell>
        <mxCell id="qo1yuMi9IAI9fGJ403cK-48" value="" style="endArrow=block;endFill=0;endSize=12;html=1;exitX=0.5;exitY=0;exitDx=0;exitDy=0;entryX=0.75;entryY=1;entryDx=0;entryDy=0;" edge="1" parent="1" source="qo1yuMi9IAI9fGJ403cK-47" target="qo1yuMi9IAI9fGJ403cK-43">
          <mxGeometry width="160" relative="1" as="geometry">
            <mxPoint x="9.999999999999773" y="810" as="sourcePoint" />
            <mxPoint y="740" as="targetPoint" />
          </mxGeometry>
        </mxCell>
        <mxCell id="qo1yuMi9IAI9fGJ403cK-52" value="" style="endArrow=open;html=1;endSize=12;startArrow=diamondThin;startSize=14;startFill=0;edgeStyle=orthogonalEdgeStyle;entryX=0;entryY=0.5;entryDx=0;entryDy=0;exitX=1;exitY=0.5;exitDx=0;exitDy=0;" edge="1" parent="1" source="qo1yuMi9IAI9fGJ403cK-45" target="qo1yuMi9IAI9fGJ403cK-47">
          <mxGeometry relative="1" as="geometry">
            <mxPoint x="70" y="824" as="sourcePoint" />
            <mxPoint x="190" y="824.41" as="targetPoint" />
          </mxGeometry>
        </mxCell>
        <mxCell id="qo1yuMi9IAI9fGJ403cK-53" value="0..n" style="edgeLabel;resizable=0;html=1;align=left;verticalAlign=top;" connectable="0" vertex="1" parent="qo1yuMi9IAI9fGJ403cK-52">
          <mxGeometry x="-1" relative="1" as="geometry" />
        </mxCell>
        <mxCell id="qo1yuMi9IAI9fGJ403cK-54" value="1" style="edgeLabel;resizable=0;html=1;align=right;verticalAlign=top;" connectable="0" vertex="1" parent="qo1yuMi9IAI9fGJ403cK-52">
          <mxGeometry x="1" relative="1" as="geometry" />
        </mxCell>
        <mxCell id="qo1yuMi9IAI9fGJ403cK-55" value="ATAMetricItem" style="swimlane;fontStyle=0;childLayout=stackLayout;horizontal=1;startSize=26;fillColor=none;horizontalStack=0;resizeParent=1;resizeParentMax=0;resizeLast=0;collapsible=1;marginBottom=0;" vertex="1" parent="1">
          <mxGeometry x="273" y="510" width="140" height="52" as="geometry" />
        </mxCell>
        <mxCell id="qo1yuMi9IAI9fGJ403cK-56" value="MetricItem" style="swimlane;fontStyle=0;childLayout=stackLayout;horizontal=1;startSize=26;fillColor=none;horizontalStack=0;resizeParent=1;resizeParentMax=0;resizeLast=0;collapsible=1;marginBottom=0;" vertex="1" parent="1">
          <mxGeometry x="270" y="600" width="140" height="52" as="geometry" />
        </mxCell>
        <mxCell id="qo1yuMi9IAI9fGJ403cK-57" value="" style="endArrow=block;endFill=0;endSize=12;html=1;entryX=0.5;entryY=0;entryDx=0;entryDy=0;exitX=0.5;exitY=1;exitDx=0;exitDy=0;" edge="1" parent="1" source="qo1yuMi9IAI9fGJ403cK-38" target="qo1yuMi9IAI9fGJ403cK-55">
          <mxGeometry width="160" relative="1" as="geometry">
            <mxPoint x="149.99999999999977" y="349.9999999999998" as="sourcePoint" />
            <mxPoint x="149.99999999999977" y="282" as="targetPoint" />
          </mxGeometry>
        </mxCell>
        <mxCell id="qo1yuMi9IAI9fGJ403cK-58" value="" style="endArrow=block;endFill=0;endSize=12;html=1;exitX=0.5;exitY=1;exitDx=0;exitDy=0;" edge="1" parent="1" source="qo1yuMi9IAI9fGJ403cK-55">
          <mxGeometry width="160" relative="1" as="geometry">
            <mxPoint x="349.9999999999998" y="402" as="sourcePoint" />
            <mxPoint x="340" y="600" as="targetPoint" />
          </mxGeometry>
        </mxCell>
        <mxCell id="qo1yuMi9IAI9fGJ403cK-59" value="" style="endArrow=block;dashed=1;endFill=0;endSize=12;html=1;exitX=0;exitY=0.5;exitDx=0;exitDy=0;entryX=1;entryY=0.5;entryDx=0;entryDy=0;" edge="1" parent="1" source="qo1yuMi9IAI9fGJ403cK-56" target="qo1yuMi9IAI9fGJ403cK-42">
          <mxGeometry width="160" relative="1" as="geometry">
            <mxPoint x="89.99999999999977" y="699.9999999999998" as="sourcePoint" />
            <mxPoint x="89.99999999999977" y="644.9999999999998" as="targetPoint" />
          </mxGeometry>
        </mxCell>
        <mxCell id="qo1yuMi9IAI9fGJ403cK-60" value="" style="endArrow=open;html=1;endSize=12;startArrow=diamondThin;startSize=14;startFill=0;edgeStyle=orthogonalEdgeStyle;entryX=0.5;entryY=1;entryDx=0;entryDy=0;exitX=0.75;exitY=0;exitDx=0;exitDy=0;" edge="1" parent="1" source="qo1yuMi9IAI9fGJ403cK-47" target="qo1yuMi9IAI9fGJ403cK-56">
          <mxGeometry relative="1" as="geometry">
            <mxPoint x="79.99999999999977" y="855" as="sourcePoint" />
            <mxPoint x="199.99999999999977" y="855" as="targetPoint" />
          </mxGeometry>
        </mxCell>
        <mxCell id="qo1yuMi9IAI9fGJ403cK-61" value="0..n" style="edgeLabel;resizable=0;html=1;align=left;verticalAlign=top;" connectable="0" vertex="1" parent="qo1yuMi9IAI9fGJ403cK-60">
          <mxGeometry x="-1" relative="1" as="geometry">
            <mxPoint y="-40" as="offset" />
          </mxGeometry>
        </mxCell>
        <mxCell id="qo1yuMi9IAI9fGJ403cK-62" value="1" style="edgeLabel;resizable=0;html=1;align=right;verticalAlign=top;" connectable="0" vertex="1" parent="qo1yuMi9IAI9fGJ403cK-60">
          <mxGeometry x="1" relative="1" as="geometry" />
        </mxCell>
      </root>
    </mxGraphModel>
  </diagram>
</mxfile>
